<?xml version="1.0" encoding="UTF-8" standalone="no"?>
<!-- Created with Inkscape (http://www.inkscape.org/) -->

<svg
   xmlns:dc="http://purl.org/dc/elements/1.1/"
   xmlns:cc="http://creativecommons.org/ns#"
   xmlns:rdf="http://www.w3.org/1999/02/22-rdf-syntax-ns#"
   xmlns:svg="http://www.w3.org/2000/svg"
   xmlns="http://www.w3.org/2000/svg"
   xmlns:sodipodi="http://sodipodi.sourceforge.net/DTD/sodipodi-0.dtd"
   xmlns:inkscape="http://www.inkscape.org/namespaces/inkscape"
   width="338.66666mm"
   height="140.60713mm"
   viewBox="0 0 338.66666 140.60713"
   version="1.1"
   id="svg8"
   inkscape:version="0.92.5 (2060ec1f9f, 2020-04-08)"
   sodipodi:docname="banner.svg">
  <defs
     id="defs2" />
  <sodipodi:namedview
     id="base"
     pagecolor="#ffffff"
     bordercolor="#666666"
     borderopacity="1.0"
     inkscape:pageopacity="0.0"
     inkscape:pageshadow="2"
     inkscape:zoom="0.35"
     inkscape:cx="634.52639"
     inkscape:cy="71.428476"
     inkscape:document-units="mm"
     inkscape:current-layer="layer1"
     showgrid="false"
     inkscape:window-width="1366"
     inkscape:window-height="711"
     inkscape:window-x="0"
     inkscape:window-y="0"
     inkscape:window-maximized="1" />
  <metadata
     id="metadata5">
    <rdf:RDF>
      <cc:Work
         rdf:about="">
        <dc:format>image/svg+xml</dc:format>
        <dc:type
           rdf:resource="http://purl.org/dc/dcmitype/StillImage" />
        <dc:title></dc:title>
      </cc:Work>
    </rdf:RDF>
  </metadata>
  <g
     inkscape:label="Tavolo 1"
     inkscape:groupmode="layer"
     id="layer1"
     transform="translate(115.66071,-27.124985)">
    <rect
       style="fill:#000004;fill-opacity:1;stroke:none;stroke-width:19.42998695;stroke-linecap:round;stroke-linejoin:miter;stroke-miterlimit:4;stroke-dasharray:none;stroke-opacity:1;paint-order:normal"
       id="rect815"
       width="338.66666"
       height="140.60713"
       x="-115.66071"
       y="27.124985"
       ry="16.948177" />
    <g
       aria-label="DesperØ"
       style="font-style:normal;font-weight:normal;font-size:47.11984253px;line-height:1.25;font-family:sans-serif;letter-spacing:0px;word-spacing:0px;fill:#000000;fill-opacity:1;stroke:none;stroke-width:1.17799604"
       id="text819">
      <path
         d="m -37.159777,93.158236 q 0.518318,0.04712 1.177996,0.09424 0.706798,0 1.649195,0 5.513021,0 8.151732,-2.780071 2.685831,-2.780071 2.685831,-7.680534 0,-5.136063 -2.544471,-7.774774 -2.544472,-2.638712 -8.057493,-2.638712 -0.753918,0 -1.554955,0.04712 -0.801037,0 -1.507835,0.09424 z m 21.251049,-10.366365 q 0,4.240786 -1.319356,7.397815 -1.319355,3.157029 -3.769587,5.230302 -2.403112,2.073274 -5.88998,3.10991 -3.486869,1.036637 -7.821894,1.036637 -1.979034,0 -4.617745,-0.18848 -2.638711,-0.141359 -5.183182,-0.659678 V 66.912484 q 2.544471,-0.471199 5.277422,-0.612558 2.780071,-0.18848 4.759104,-0.18848 4.193666,0 7.586295,0.942397 3.439748,0.942397 5.88998,2.96855 2.450232,2.026154 3.769587,5.183183 1.319356,3.157029 1.319356,7.586295 z"
         style="font-style:normal;font-variant:normal;font-weight:bold;font-stretch:normal;font-family:Ubuntu;-inkscape-font-specification:'Ubuntu Bold';fill:#ffffff;fill-opacity:1;stroke-width:1.17799604"
         id="path825"
         inkscape:connector-curvature="0" />
      <path
         d="m -11.432364,86.938417 q 0,-3.298389 0.989516,-5.748621 1.0366369,-2.497352 2.6858314,-4.146546 1.6491945,-1.649195 3.7695874,-2.497352 2.1675127,-0.848157 4.42926517,-0.848157 5.27742233,0 8.34021213,3.251269 3.0627899,3.20415 3.0627899,9.471089 0,0.612558 -0.04712,1.366475 -0.04712,0.706798 -0.09424,1.272236 H -4.2230284 q 0.2355992,2.167513 2.0261532,3.439748 1.790554,1.272236 4.8062239,1.272236 1.9319136,0 3.7695874,-0.329839 1.8847937,-0.376959 3.0627898,-0.895277 l 0.9423971,5.701501 q -0.5654384,0.282719 -1.5078352,0.565438 -0.9423969,0.282719 -2.1203929,0.471199 -1.1308763,0.235599 -2.4502318,0.376958 -1.3193556,0.14136 -2.6387112,0.14136 -3.3455088,0 -5.8428605,-0.989517 -2.4502318,-0.989517 -4.0994263,-2.685831 -1.6020746,-1.743434 -2.4031121,-4.099426 -0.753917,-2.355992 -0.753917,-5.088943 z M 5.0595805,84.252586 Q 5.0124607,83.357309 4.7297416,82.509152 4.4941424,81.660994 3.9287043,81.001317 3.410386,80.341639 2.5622289,79.91756 1.7611916,79.493482 0.53607565,79.493482 q -1.17799606,0 -2.02615325,0.424078 -0.8481571,0.376959 -1.4135953,1.036637 -0.5654381,0.659678 -0.895277,1.554955 -0.282719,0.848157 -0.4240785,1.743434 z"
         style="font-style:normal;font-variant:normal;font-weight:bold;font-stretch:normal;font-family:Ubuntu;-inkscape-font-specification:'Ubuntu Bold';fill:#ffffff;fill-opacity:1;stroke-width:1.17799604"
         id="path827"
         inkscape:connector-curvature="0" />
      <path
         d="m 24.378699,94.100633 q 1.931914,0 2.732951,-0.376959 0.801037,-0.376959 0.801037,-1.460715 0,-0.848157 -1.036636,-1.460715 -1.036637,-0.659678 -3.15703,-1.460715 -1.649194,-0.612558 -3.01567,-1.272236 -1.319355,-0.659678 -2.261752,-1.554955 -0.942397,-0.942397 -1.460715,-2.214632 -0.518319,-1.272236 -0.518319,-3.06279 0,-3.486868 2.591592,-5.513022 2.591591,-2.026153 7.115096,-2.026153 2.261752,0 4.335026,0.424079 2.073273,0.376958 3.298388,0.848157 l -1.225115,5.465902 q -1.225116,-0.424079 -2.685831,-0.753918 -1.413596,-0.329839 -3.20415,-0.329839 -3.298389,0 -3.298389,1.837674 0,0.424079 0.14136,0.753918 0.141359,0.329838 0.565438,0.659677 0.424079,0.282719 1.130876,0.659678 0.753918,0.329839 1.884794,0.753918 2.308872,0.848157 3.816707,1.696314 1.507835,0.801037 2.355992,1.790554 0.895277,0.942397 1.225116,2.120393 0.376959,1.177996 0.376959,2.732951 0,3.675347 -2.780071,5.560141 -2.732951,1.884794 -7.774774,1.884794 -3.298389,0 -5.513021,-0.565438 -2.167513,-0.565438 -3.01567,-0.942397 l 1.177996,-5.701501 q 1.790554,0.706798 3.675347,1.130876 1.884794,0.376959 3.722468,0.376959 z"
         style="font-style:normal;font-variant:normal;font-weight:bold;font-stretch:normal;font-family:Ubuntu;-inkscape-font-specification:'Ubuntu Bold';fill:#ffffff;fill-opacity:1;stroke-width:1.17799604"
         id="path829"
         inkscape:connector-curvature="0" />
      <path
         d="m 55.996051,86.938417 q 0,-3.251269 -1.460715,-5.183183 -1.460715,-1.979033 -4.335025,-1.979033 -0.942397,0 -1.743434,0.09424 -0.801038,0.04712 -1.319356,0.14136 v 12.675238 q 0.659678,0.424078 1.696314,0.706797 1.083757,0.282719 2.167513,0.282719 4.994703,0 4.994703,-6.738138 z m 7.162216,-0.18848 q 0,2.874311 -0.706797,5.230303 -0.706798,2.355992 -2.073273,4.052306 -1.366476,1.696315 -3.392629,2.638712 -2.026153,0.942396 -4.664864,0.942396 -1.460715,0 -2.732951,-0.282719 -1.272236,-0.282719 -2.450232,-0.801037 v 9.329732 H 40.116664 V 75.205576 q 0.942397,-0.282719 2.167513,-0.518318 1.225116,-0.282719 2.544472,-0.471199 1.366475,-0.188479 2.732951,-0.282719 1.413595,-0.141359 2.685831,-0.141359 3.062789,0 5.465901,0.942397 2.403112,0.895277 4.052307,2.591591 1.649194,1.649194 2.497351,4.052306 0.895277,2.403112 0.895277,5.371662 z"
         style="font-style:normal;font-variant:normal;font-weight:bold;font-stretch:normal;font-family:Ubuntu;-inkscape-font-specification:'Ubuntu Bold';fill:#ffffff;fill-opacity:1;stroke-width:1.17799604"
         id="path831"
         inkscape:connector-curvature="0" />
      <path
         d="m 67.398965,86.938417 q 0,-3.298389 0.989517,-5.748621 1.036636,-2.497352 2.685831,-4.146546 1.649194,-1.649195 3.769587,-2.497352 2.167513,-0.848157 4.429265,-0.848157 5.277423,0 8.340212,3.251269 3.06279,3.20415 3.06279,9.471089 0,0.612558 -0.04712,1.366475 -0.04712,0.706798 -0.09424,1.272236 H 74.608301 q 0.235599,2.167513 2.026153,3.439748 1.790554,1.272236 4.806224,1.272236 1.931914,0 3.769587,-0.329839 1.884794,-0.376959 3.06279,-0.895277 l 0.942397,5.701501 q -0.565438,0.282719 -1.507835,0.565438 -0.942397,0.282719 -2.120393,0.471199 -1.130876,0.235599 -2.450232,0.376958 -1.319355,0.14136 -2.638711,0.14136 -3.345509,0 -5.84286,-0.989517 Q 72.205189,97.8231 70.555994,96.126786 68.95392,94.383352 68.152882,92.02736 67.398965,89.671368 67.398965,86.938417 Z M 83.89091,84.252586 q -0.04712,-0.895277 -0.329839,-1.743434 -0.235599,-0.848158 -0.801037,-1.507835 -0.518319,-0.659678 -1.366476,-1.083757 -0.801037,-0.424078 -2.026153,-0.424078 -1.177996,0 -2.026153,0.424078 -0.848157,0.376959 -1.413596,1.036637 -0.565438,0.659678 -0.895277,1.554955 -0.282719,0.848157 -0.424078,1.743434 z"
         style="font-style:normal;font-variant:normal;font-weight:bold;font-stretch:normal;font-family:Ubuntu;-inkscape-font-specification:'Ubuntu Bold';fill:#ffffff;fill-opacity:1;stroke-width:1.17799604"
         id="path833"
         inkscape:connector-curvature="0" />
      <path
         d="m 111.03192,80.577238 q -0.9424,-0.235599 -2.21463,-0.471198 -1.27224,-0.282719 -2.73296,-0.282719 -0.65967,0 -1.60207,0.141359 -0.89528,0.09424 -1.36648,0.235599 V 99.142456 H 96.094928 V 75.676774 q 1.884794,-0.659677 4.429262,-1.225115 2.59159,-0.612558 5.74862,-0.612558 0.56544,0 1.36648,0.09424 0.80104,0.04712 1.60207,0.18848 0.80104,0.09424 1.60208,0.282719 0.80104,0.141359 1.36647,0.376958 z"
         style="font-style:normal;font-variant:normal;font-weight:bold;font-stretch:normal;font-family:Ubuntu;-inkscape-font-specification:'Ubuntu Bold';fill:#ffffff;fill-opacity:1;stroke-width:1.17799604"
         id="path835"
         inkscape:connector-curvature="0" />
      <path
         d="m 147.54976,82.791871 q 0,4.193666 -1.27224,7.397815 -1.22511,3.157029 -3.39262,5.324542 -2.16752,2.120393 -5.18319,3.204149 -2.96855,1.083757 -6.4083,1.083757 -2.35599,0 -4.5235,-0.518318 -2.12039,-0.471199 -3.95807,-1.554955 l -2.73295,3.533989 -4.00519,-2.968551 2.87432,-3.675348 q -1.83768,-2.120393 -2.87432,-5.041823 -1.03663,-2.96855 -1.03663,-6.785257 0,-4.193666 1.31935,-7.350696 1.31936,-3.204149 3.53399,-5.371662 2.26175,-2.167513 5.18318,-3.251269 2.96855,-1.083756 6.21982,-1.083756 4.66487,0 8.38734,2.073273 l 2.63871,-3.439749 4.00518,2.96855 -2.78007,3.581108 q 1.8848,2.120393 2.92143,5.088943 1.08376,2.96855 1.08376,6.785258 z m -7.5863,0 q 0,-3.392629 -1.13087,-5.795741 l -11.82708,15.313949 q 1.93191,1.036636 4.2879,1.036636 2.02616,0 3.62823,-0.753917 1.6492,-0.753918 2.73295,-2.120393 1.13088,-1.413595 1.69632,-3.345509 0.61255,-1.931913 0.61255,-4.335025 z m -17.3401,0 q 0,3.251269 1.08376,5.654381 l 11.77996,-15.219709 q -1.83767,-1.036637 -4.19367,-1.036637 -2.07327,0 -3.67534,0.801037 -1.60208,0.753918 -2.73295,2.167513 -1.08376,1.366476 -1.69632,3.345509 -0.56544,1.931914 -0.56544,4.287906 z"
         style="font-style:normal;font-variant:normal;font-weight:bold;font-stretch:normal;font-family:Ubuntu;-inkscape-font-specification:'Ubuntu Bold';fill:#ffffff;fill-opacity:1;stroke-width:1.17799604"
         id="path837"
         inkscape:connector-curvature="0" />
    </g>
    <g
       aria-label="Rustlingva ludmotoro"
       style="font-style:normal;font-weight:normal;font-size:20.45762062px;line-height:1.25;font-family:sans-serif;letter-spacing:0px;word-spacing:0px;fill:#000000;fill-opacity:1;stroke:none;stroke-width:0.51144052"
       id="text819-7">
      <path
         d="m -39.327461,119.17945 q 0,1.59569 -0.838762,2.51629 -0.838763,0.92059 -2.209423,1.32974 0.327321,0.40915 0.838762,1.10471 0.531898,0.69556 1.084254,1.53432 0.552356,0.81831 1.084254,1.71844 0.531898,0.90014 0.900135,1.71844 h -1.493406 q -0.42961,-0.8183 -0.941051,-1.6366 -0.490983,-0.81831 -1.022881,-1.57524 -0.51144,-0.77739 -1.002423,-1.43204 -0.490983,-0.65464 -0.85922,-1.14562 -0.654644,0.0614 -1.309288,0.0614 h -2.291254 v 5.72813 h -1.391118 v -13.91118 q 0.736475,-0.20457 1.71844,-0.2864 1.002424,-0.10229 1.841186,-0.10229 2.92544,0 4.398389,1.10471 1.493406,1.10471 1.493406,3.27322 z m -5.728134,-3.17093 q -0.777389,0 -1.37066,0.0614 -0.572814,0.0409 -0.961509,0.0818 v 6.035 h 1.923017 q 0.961508,0 1.820728,-0.0818 0.85922,-0.10229 1.493406,-0.40915 0.634187,-0.32733 1.002424,-0.9206 0.368237,-0.59327 0.368237,-1.61615 0,-0.94105 -0.368237,-1.55478 -0.368237,-0.61373 -0.961508,-0.96151 -0.593271,-0.36823 -1.370661,-0.49098 -0.756932,-0.1432 -1.575237,-0.1432 z"
         style="font-style:normal;font-variant:normal;font-weight:300;font-stretch:normal;font-family:Ubuntu;-inkscape-font-specification:'Ubuntu Light';fill:#ffffff;fill-opacity:1;stroke-width:0.51144052"
         id="path840"
         inkscape:connector-curvature="0" />
      <path
         d="m -28.096266,128.73316 q -0.593271,0.16366 -1.595694,0.36823 -1.002424,0.20458 -2.454915,0.20458 -1.186542,0 -1.984389,-0.34778 -0.797847,-0.34778 -1.28883,-0.98196 -0.490983,-0.63419 -0.716017,-1.53433 -0.204576,-0.90013 -0.204576,-1.98439 v -5.93271 h 1.329745 v 5.5031 q 0,1.12517 0.163661,1.90256 0.163661,0.77739 0.531898,1.26838 0.368237,0.47052 0.941051,0.69556 0.593271,0.20457 1.432033,0.20457 0.941051,0 1.63661,-0.10229 0.695559,-0.10228 0.879678,-0.18412 v -9.28776 h 1.329745 z"
         style="font-style:normal;font-variant:normal;font-weight:300;font-stretch:normal;font-family:Ubuntu;-inkscape-font-specification:'Ubuntu Light';fill:#ffffff;fill-opacity:1;stroke-width:0.51144052"
         id="path842"
         inkscape:connector-curvature="0" />
      <path
         d="m -22.409081,128.16034 q 1.145626,0 1.882101,-0.36823 0.756932,-0.3887 0.756932,-1.28883 0,-0.42961 -0.143204,-0.73648 -0.122745,-0.30686 -0.42961,-0.55235 -0.306864,-0.24549 -0.818305,-0.47053 -0.490982,-0.22503 -1.227457,-0.5319 -0.593271,-0.24549 -1.125169,-0.49098 -0.531898,-0.26595 -0.94105,-0.59327 -0.409153,-0.34778 -0.654644,-0.81831 -0.245492,-0.47052 -0.245492,-1.14562 0,-1.28883 0.961508,-2.08668 0.981966,-0.79785 2.679949,-0.79785 1.084254,0 1.779813,0.18412 0.716016,0.18412 1.002423,0.32732 l -0.306864,1.18655 q -0.245492,-0.12275 -0.838763,-0.32733 -0.572813,-0.20457 -1.697982,-0.20457 -0.450068,0 -0.85922,0.10229 -0.388695,0.0818 -0.695559,0.2864 -0.306865,0.18412 -0.490983,0.49099 -0.184119,0.2864 -0.184119,0.71601 0,0.42961 0.163661,0.73648 0.163661,0.30686 0.470525,0.55235 0.327322,0.22504 0.77739,0.42961 0.470525,0.20458 1.063796,0.45007 0.613729,0.24549 1.166085,0.51144 0.572813,0.24549 1.002423,0.61373 0.42961,0.34778 0.695559,0.85922 0.265949,0.49098 0.265949,1.24791 0,1.43204 -1.084254,2.16851 -1.063796,0.73648 -2.925439,0.73648 -1.391119,0 -2.127593,-0.2455 -0.736474,-0.22503 -0.981966,-0.34777 l 0.34778,-1.207 q 0.06137,0.0409 0.265949,0.1432 0.204576,0.0818 0.552356,0.20458 0.347779,0.10228 0.818304,0.18411 0.490983,0.0818 1.12517,0.0818 z"
         style="font-style:normal;font-variant:normal;font-weight:300;font-stretch:normal;font-family:Ubuntu;-inkscape-font-specification:'Ubuntu Light';fill:#ffffff;fill-opacity:1;stroke-width:0.51144052"
         id="path844"
         inkscape:connector-curvature="0" />
      <path
         d="m -14.573823,118.5248 h 4.21427 v 1.12517 h -4.21427 v 5.62585 q 0,0.90013 0.143204,1.47295 0.163661,0.55235 0.450067,0.85922 0.286407,0.30686 0.695559,0.40915 0.409153,0.10229 0.900136,0.10229 0.838762,0 1.350203,-0.18412 0.51144,-0.20458 0.797847,-0.36824 l 0.3273219,1.10471 q -0.2864069,0.18412 -1.0024239,0.42961 -0.716016,0.22504 -1.554779,0.22504 -0.981965,0 -1.657067,-0.24549 -0.654644,-0.26595 -1.063796,-0.77739 -0.388695,-0.5319 -0.552356,-1.30929 -0.163661,-0.77739 -0.163661,-1.84119 v -9.73782 l 1.329745,-0.24549 z"
         style="font-style:normal;font-variant:normal;font-weight:300;font-stretch:normal;font-family:Ubuntu;-inkscape-font-specification:'Ubuntu Light';fill:#ffffff;fill-opacity:1;stroke-width:0.51144052"
         id="path846"
         inkscape:connector-curvature="0" />
      <path
         d="m -5.2247092,129.28551 q -0.6751015,-0.0204 -1.186542,-0.18412 -0.4909829,-0.1432 -0.8387625,-0.45006 -0.3273219,-0.32732 -0.5114405,-0.81831 -0.163661,-0.51144 -0.163661,-1.26837 v -13.09288 l 1.3297454,-0.24549 v 13.29745 q 0,0.49099 0.081831,0.79785 0.1022881,0.28641 0.2864067,0.47053 0.1841185,0.16366 0.4705252,0.24549 0.3068643,0.0818 0.7160168,0.1432 z"
         style="font-style:normal;font-variant:normal;font-weight:300;font-stretch:normal;font-family:Ubuntu;-inkscape-font-specification:'Ubuntu Light';fill:#ffffff;fill-opacity:1;stroke-width:0.51144052"
         id="path848"
         inkscape:connector-curvature="0" />
      <path
         d="M -1.3582336,129.10139 H -2.6879789 V 118.5248 h 1.3297453 z m 0.3068643,-13.76797 q 0,0.47052 -0.2864067,0.75693 -0.2864066,0.26595 -0.6955591,0.26595 -0.4091524,0 -0.6955591,-0.26595 -0.2864066,-0.28641 -0.2864066,-0.75693 0,-0.47053 0.2864066,-0.73648 0.2864067,-0.28641 0.6955591,-0.28641 0.4091525,0 0.6955591,0.28641 0.2864067,0.26595 0.2864067,0.73648 z"
         style="font-style:normal;font-variant:normal;font-weight:300;font-stretch:normal;font-family:Ubuntu;-inkscape-font-specification:'Ubuntu Light';fill:#ffffff;fill-opacity:1;stroke-width:0.51144052"
         id="path850"
         inkscape:connector-curvature="0" />
      <path
         d="m 2.160467,118.89304 q 0.593271,-0.16366 1.5956944,-0.36824 1.0024234,-0.20457 2.4549145,-0.20457 1.2069996,0 2.0048468,0.34778 0.8183048,0.34778 1.2888301,1.00242 0.4909829,0.63419 0.6955592,1.53432 0.204576,0.90014 0.204576,1.98439 v 5.91225 H 9.0751427 v -5.48264 q 0,-1.12517 -0.1636609,-1.90256 -0.1432034,-0.77739 -0.5114405,-1.26837 -0.3477796,-0.49098 -0.9410506,-0.69556 -0.5728134,-0.22503 -1.452491,-0.22503 -0.9410506,0 -1.6366097,0.10229 -0.6751015,0.10228 -0.8796777,0.18411 v 9.28776 H 2.160467 Z"
         style="font-style:normal;font-variant:normal;font-weight:300;font-stretch:normal;font-family:Ubuntu;-inkscape-font-specification:'Ubuntu Light';fill:#ffffff;fill-opacity:1;stroke-width:0.51144052"
         id="path852"
         inkscape:connector-curvature="0" />
      <path
         d="m 20.695035,127.87394 q -0.122745,0.10229 -0.368237,0.24549 -0.245491,0.12274 -0.613728,0.26595 -0.34778,0.1432 -0.818305,0.24549 -0.450068,0.0818 -1.022881,0.0818 -0.920593,0 -1.779813,-0.28641 -0.85922,-0.2864 -1.513864,-0.90013 -0.634186,-0.61373 -1.022881,-1.57524 -0.388695,-0.98196 -0.388695,-2.37308 0,-1.12517 0.34778,-2.08668 0.347779,-0.96151 0.981965,-1.65707 0.654644,-0.71601 1.575237,-1.10471 0.941051,-0.40915 2.107135,-0.40915 1.472949,0 2.352627,0.20457 0.900135,0.18412 1.472948,0.36824 v 9.656 q 0,2.37308 -1.227457,3.37551 -1.227457,1.02288 -3.702829,1.02288 -1.022881,0 -1.861644,-0.16366 -0.818305,-0.14321 -1.411576,-0.34778 l 0.265949,-1.207 q 0.490983,0.22503 1.329746,0.38869 0.85922,0.16366 1.71844,0.16366 1.882101,0 2.720863,-0.73647 0.85922,-0.71602 0.85922,-2.47537 z m -0.02046,-8.06031 q -0.34778,-0.10228 -0.900135,-0.18411 -0.552356,-0.10229 -1.575237,-0.10229 -0.85922,0 -1.534322,0.30686 -0.654644,0.28641 -1.125169,0.83876 -0.470525,0.5319 -0.716017,1.28884 -0.245491,0.73647 -0.245491,1.6366 0,1.04334 0.286407,1.80028 0.286406,0.73647 0.736474,1.20699 0.470525,0.47053 1.063796,0.69556 0.593271,0.20458 1.207,0.20458 0.900135,0 1.636609,-0.26595 0.756932,-0.26595 1.166085,-0.61373 z"
         style="font-style:normal;font-variant:normal;font-weight:300;font-stretch:normal;font-family:Ubuntu;-inkscape-font-specification:'Ubuntu Light';fill:#ffffff;fill-opacity:1;stroke-width:0.51144052"
         id="path854"
         inkscape:connector-curvature="0" />
      <path
         d="m 28.71442,127.66936 q 0.42961,-0.87968 0.879678,-2.00485 0.450067,-1.14562 0.85922,-2.35262 0.42961,-1.22746 0.777389,-2.45492 0.368237,-1.24791 0.613729,-2.33217 h 1.329745 q -0.368237,1.4525 -0.818305,2.86407 -0.450067,1.41158 -0.961508,2.76178 -0.490983,1.3502 -1.043338,2.59812 -0.531899,1.24791 -1.043339,2.35262 h -1.268373 q -0.531898,-1.10471 -1.063796,-2.35262 -0.531898,-1.24792 -1.043339,-2.59812 -0.490982,-1.3502 -0.94105,-2.76178 -0.450068,-1.41157 -0.818305,-2.86407 h 1.411576 q 0.245491,1.08426 0.593271,2.33217 0.368237,1.22746 0.77739,2.45492 0.42961,1.207 0.879677,2.35262 0.450068,1.12517 0.879678,2.00485 z"
         style="font-style:normal;font-variant:normal;font-weight:300;font-stretch:normal;font-family:Ubuntu;-inkscape-font-specification:'Ubuntu Light';fill:#ffffff;fill-opacity:1;stroke-width:0.51144052"
         id="path856"
         inkscape:connector-curvature="0" />
      <path
         d="m 38.677272,128.13989 q 0.77739,0 1.350203,-0.0409 0.593271,-0.0614 1.002423,-0.1432 v -3.72329 q -0.225033,-0.10229 -0.716016,-0.20458 -0.490983,-0.12274 -1.350203,-0.12274 -0.490983,0 -1.022881,0.0818 -0.531899,0.0614 -0.981966,0.30686 -0.450068,0.22504 -0.736475,0.63419 -0.286406,0.40915 -0.286406,1.08425 0,0.59327 0.184118,1.00243 0.204577,0.40915 0.552356,0.65464 0.368237,0.24549 0.85922,0.36824 0.511441,0.10229 1.145627,0.10229 z m -0.122746,-9.86058 q 1.043339,0 1.759356,0.30687 0.736474,0.2864 1.186542,0.8183 0.450067,0.51144 0.654643,1.22746 0.204577,0.71602 0.204577,1.55478 v 6.66918 q -0.204577,0.0614 -0.593271,0.14321 -0.388695,0.0614 -0.900136,0.1432 -0.51144,0.0818 -1.145626,0.12275 -0.613729,0.0614 -1.268373,0.0614 -0.838762,0 -1.554779,-0.18412 -0.695559,-0.18412 -1.227457,-0.57281 -0.511441,-0.40916 -0.818305,-1.02288 -0.286407,-0.63419 -0.286407,-1.53433 0,-0.85922 0.327322,-1.47294 0.327322,-0.61373 0.920593,-1.00243 0.593271,-0.40915 1.411576,-0.59327 0.818305,-0.18412 1.779813,-0.18412 0.286407,0 0.593271,0.0409 0.327322,0.0205 0.613729,0.0818 0.306864,0.0409 0.51144,0.10229 0.225034,0.0409 0.306864,0.0818 v -0.65465 q 0,-0.55235 -0.08183,-1.06379 -0.08183,-0.5319 -0.368237,-0.94105 -0.265949,-0.42961 -0.77739,-0.67511 -0.490983,-0.26594 -1.309288,-0.26594 -1.166084,0 -1.738897,0.16366 -0.572814,0.16366 -0.838763,0.26595 l -0.184118,-1.16609 q 0.347779,-0.16366 1.063796,-0.30686 0.736474,-0.14321 1.759355,-0.14321 z"
         style="font-style:normal;font-variant:normal;font-weight:300;font-stretch:normal;font-family:Ubuntu;-inkscape-font-specification:'Ubuntu Light';fill:#ffffff;fill-opacity:1;stroke-width:0.51144052"
         id="path858"
         inkscape:connector-curvature="0" />
      <path
         d="m 53.099845,129.28551 q -0.675101,-0.0204 -1.186542,-0.18412 -0.490983,-0.1432 -0.838762,-0.45006 -0.327322,-0.32732 -0.511441,-0.81831 -0.163661,-0.51144 -0.163661,-1.26837 v -13.09288 l 1.329746,-0.24549 v 13.29745 q 0,0.49099 0.08183,0.79785 0.102288,0.28641 0.286407,0.47053 0.184118,0.16366 0.470525,0.24549 0.306864,0.0818 0.716017,0.1432 z"
         style="font-style:normal;font-variant:normal;font-weight:300;font-stretch:normal;font-family:Ubuntu;-inkscape-font-specification:'Ubuntu Light';fill:#ffffff;fill-opacity:1;stroke-width:0.51144052"
         id="path860"
         inkscape:connector-curvature="0" />
      <path
         d="m 63.758255,128.73316 q -0.593271,0.16366 -1.595695,0.36823 -1.002423,0.20458 -2.454914,0.20458 -1.186542,0 -1.984389,-0.34778 -0.797848,-0.34778 -1.28883,-0.98196 -0.490983,-0.63419 -0.716017,-1.53433 -0.204576,-0.90013 -0.204576,-1.98439 v -5.93271 h 1.329745 v 5.5031 q 0,1.12517 0.163661,1.90256 0.163661,0.77739 0.531898,1.26838 0.368237,0.47052 0.941051,0.69556 0.593271,0.20457 1.432033,0.20457 0.941051,0 1.63661,-0.10229 0.695559,-0.10228 0.879677,-0.18412 v -9.28776 h 1.329746 z"
         style="font-style:normal;font-variant:normal;font-weight:300;font-stretch:normal;font-family:Ubuntu;-inkscape-font-specification:'Ubuntu Light';fill:#ffffff;fill-opacity:1;stroke-width:0.51144052"
         id="path862"
         inkscape:connector-curvature="0" />
      <path
         d="m 75.685012,128.77407 q -0.593271,0.20458 -1.513864,0.3887 -0.920593,0.18412 -2.332169,0.18412 -1.166084,0 -2.127592,-0.36824 -0.941051,-0.3887 -1.63661,-1.10471 -0.675102,-0.71602 -1.063796,-1.7389 -0.368238,-1.02288 -0.368238,-2.31171 0,-1.207 0.306865,-2.20942 0.327322,-1.02289 0.94105,-1.75936 0.613729,-0.73647 1.493407,-1.14563 0.900135,-0.40915 2.045762,-0.40915 1.043338,0 1.80027,0.30687 0.77739,0.2864 1.125169,0.55235 v -5.68722 l 1.329746,-0.24549 z m -1.329746,-8.32625 q -0.184118,-0.1432 -0.470525,-0.30686 -0.265949,-0.16366 -0.634186,-0.30687 -0.368237,-0.1432 -0.797847,-0.22503 -0.42961,-0.10229 -0.900136,-0.10229 -0.981965,0 -1.657067,0.34778 -0.654644,0.34778 -1.063796,0.94105 -0.409153,0.57281 -0.593271,1.37066 -0.184119,0.77739 -0.184119,1.65707 0,2.08668 1.043339,3.21184 1.043339,1.10472 2.761779,1.10472 0.981965,0 1.575236,-0.0818 0.613729,-0.10229 0.920593,-0.20458 z"
         style="font-style:normal;font-variant:normal;font-weight:300;font-stretch:normal;font-family:Ubuntu;-inkscape-font-specification:'Ubuntu Light';fill:#ffffff;fill-opacity:1;stroke-width:0.51144052"
         id="path864"
         inkscape:connector-curvature="0" />
      <path
         d="m 79.20368,118.89304 q 0.593271,-0.16366 1.534321,-0.36824 0.961509,-0.20457 2.475373,-0.20457 2.004846,0 2.904982,1.16608 0.102288,-0.0818 0.388694,-0.26595 0.306865,-0.20457 0.756932,-0.40915 0.450068,-0.20457 1.043339,-0.34778 0.613729,-0.1432 1.350203,-0.1432 1.207,0 1.943474,0.36824 0.756932,0.34778 1.166084,1.00242 0.409153,0.63419 0.552356,1.53432 0.143203,0.90014 0.143203,1.96393 v 5.91225 h -1.329745 v -5.48264 q 0,-1.04334 -0.102288,-1.80027 -0.08183,-0.77739 -0.368237,-1.26837 -0.265949,-0.51144 -0.77739,-0.75693 -0.51144,-0.26595 -1.329745,-0.26595 -0.613729,0 -1.125169,0.12274 -0.490983,0.10229 -0.85922,0.26595 -0.368237,0.16366 -0.613729,0.32732 -0.225034,0.16367 -0.327322,0.2455 0.184119,0.53189 0.265949,1.207 0.102288,0.65464 0.102288,1.39111 v 6.01454 h -1.329745 v -5.48264 q 0,-1.04334 -0.102288,-1.80027 -0.08183,-0.77739 -0.368237,-1.26837 -0.286407,-0.51144 -0.818305,-0.75693 -0.511441,-0.26595 -1.370661,-0.26595 -0.961508,0 -1.636609,0.10229 -0.654644,0.10228 -0.838763,0.18411 v 9.28776 H 79.20368 Z"
         style="font-style:normal;font-variant:normal;font-weight:300;font-stretch:normal;font-family:Ubuntu;-inkscape-font-specification:'Ubuntu Light';fill:#ffffff;fill-opacity:1;stroke-width:0.51144052"
         id="path866"
         inkscape:connector-curvature="0" />
      <path
         d="m 105.8804,123.82333 q 0,1.24791 -0.36824,2.27079 -0.34778,1.02289 -1.00242,1.7389 -0.63419,0.71602 -1.51387,1.12517 -0.87967,0.3887 -1.94347,0.3887 -1.063797,0 -1.943475,-0.3887 -0.879677,-0.40915 -1.534321,-1.12517 -0.634186,-0.71601 -1.002424,-1.7389 -0.347779,-1.02288 -0.347779,-2.27079 0,-1.24792 0.347779,-2.2708 0.368238,-1.02288 1.002424,-1.7389 0.654644,-0.73647 1.534321,-1.12516 0.879678,-0.40916 1.943475,-0.40916 1.0638,0 1.94347,0.40916 0.87968,0.38869 1.51387,1.12516 0.65464,0.71602 1.00242,1.7389 0.36824,1.02288 0.36824,2.2708 z m -1.41158,0 q 0,-1.98439 -0.92059,-3.15048 -0.92059,-1.18654 -2.49583,-1.18654 -1.575237,0 -2.49583,1.18654 -0.920593,1.16609 -0.920593,3.15048 0,1.98439 0.920593,3.15047 0.920593,1.16609 2.49583,1.16609 1.57524,0 2.49583,-1.16609 0.92059,-1.16608 0.92059,-3.15047 z"
         style="font-style:normal;font-variant:normal;font-weight:300;font-stretch:normal;font-family:Ubuntu;-inkscape-font-specification:'Ubuntu Light';fill:#ffffff;fill-opacity:1;stroke-width:0.51144052"
         id="path868"
         inkscape:connector-curvature="0" />
      <path
         d="m 110.01281,118.5248 h 4.21427 v 1.12517 h -4.21427 v 5.62585 q 0,0.90013 0.14321,1.47295 0.16366,0.55235 0.45006,0.85922 0.28641,0.30686 0.69556,0.40915 0.40916,0.10229 0.90014,0.10229 0.83876,0 1.3502,-0.18412 0.51144,-0.20458 0.79785,-0.36824 l 0.32732,1.10471 q -0.28641,0.18412 -1.00242,0.42961 -0.71602,0.22504 -1.55478,0.22504 -0.98197,0 -1.65707,-0.24549 -0.65464,-0.26595 -1.0638,-0.77739 -0.38869,-0.5319 -0.55235,-1.30929 -0.16366,-0.77739 -0.16366,-1.84119 v -9.73782 l 1.32974,-0.24549 z"
         style="font-style:normal;font-variant:normal;font-weight:300;font-stretch:normal;font-family:Ubuntu;-inkscape-font-specification:'Ubuntu Light';fill:#ffffff;fill-opacity:1;stroke-width:0.51144052"
         id="path870"
         inkscape:connector-curvature="0" />
      <path
         d="m 125.70379,123.82333 q 0,1.24791 -0.36823,2.27079 -0.34778,1.02289 -1.00243,1.7389 -0.63418,0.71602 -1.51386,1.12517 -0.87968,0.3887 -1.94348,0.3887 -1.06379,0 -1.94347,-0.3887 -0.87968,-0.40915 -1.53432,-1.12517 -0.63419,-0.71601 -1.00242,-1.7389 -0.34778,-1.02288 -0.34778,-2.27079 0,-1.24792 0.34778,-2.2708 0.36823,-1.02288 1.00242,-1.7389 0.65464,-0.73647 1.53432,-1.12516 0.87968,-0.40916 1.94347,-0.40916 1.0638,0 1.94348,0.40916 0.87968,0.38869 1.51386,1.12516 0.65465,0.71602 1.00243,1.7389 0.36823,1.02288 0.36823,2.2708 z m -1.41157,0 q 0,-1.98439 -0.9206,-3.15048 -0.92059,-1.18654 -2.49583,-1.18654 -1.57523,0 -2.49583,1.18654 -0.92059,1.16609 -0.92059,3.15048 0,1.98439 0.92059,3.15047 0.9206,1.16609 2.49583,1.16609 1.57524,0 2.49583,-1.16609 0.9206,-1.16608 0.9206,-3.15047 z"
         style="font-style:normal;font-variant:normal;font-weight:300;font-stretch:normal;font-family:Ubuntu;-inkscape-font-specification:'Ubuntu Light';fill:#ffffff;fill-opacity:1;stroke-width:0.51144052"
         id="path872"
         inkscape:connector-curvature="0" />
      <path
         d="m 132.18883,118.32023 q 0.65465,0 1.22746,0.10229 0.59327,0.10228 0.81831,0.20457 l -0.26595,1.14563 q -0.16366,-0.0818 -0.6751,-0.16366 -0.49099,-0.10229 -1.30929,-0.10229 -0.85922,0 -1.39112,0.12275 -0.51144,0.12274 -0.6751,0.20457 v 9.2673 h -1.32975 v -10.0856 q 0.51144,-0.22504 1.41158,-0.45007 0.90013,-0.24549 2.18896,-0.24549 z"
         style="font-style:normal;font-variant:normal;font-weight:300;font-stretch:normal;font-family:Ubuntu;-inkscape-font-specification:'Ubuntu Light';fill:#ffffff;fill-opacity:1;stroke-width:0.51144052"
         id="path874"
         inkscape:connector-curvature="0" />
      <path
         d="m 145.26123,123.82333 q 0,1.24791 -0.36824,2.27079 -0.34778,1.02289 -1.00242,1.7389 -0.63419,0.71602 -1.51387,1.12517 -0.87968,0.3887 -1.94347,0.3887 -1.0638,0 -1.94348,-0.3887 -0.87967,-0.40915 -1.53432,-1.12517 -0.63418,-0.71601 -1.00242,-1.7389 -0.34778,-1.02288 -0.34778,-2.27079 0,-1.24792 0.34778,-2.2708 0.36824,-1.02288 1.00242,-1.7389 0.65465,-0.73647 1.53432,-1.12516 0.87968,-0.40916 1.94348,-0.40916 1.06379,0 1.94347,0.40916 0.87968,0.38869 1.51387,1.12516 0.65464,0.71602 1.00242,1.7389 0.36824,1.02288 0.36824,2.2708 z m -1.41158,0 q 0,-1.98439 -0.92059,-3.15048 -0.9206,-1.18654 -2.49583,-1.18654 -1.57524,0 -2.49583,1.18654 -0.92059,1.16609 -0.92059,3.15048 0,1.98439 0.92059,3.15047 0.92059,1.16609 2.49583,1.16609 1.57523,0 2.49583,-1.16609 0.92059,-1.16608 0.92059,-3.15047 z"
         style="font-style:normal;font-variant:normal;font-weight:300;font-stretch:normal;font-family:Ubuntu;-inkscape-font-specification:'Ubuntu Light';fill:#ffffff;fill-opacity:1;stroke-width:0.51144052"
         id="path876"
         inkscape:connector-curvature="0" />
    </g>
  </g>
</svg>
