<?xml version="1.0" encoding="UTF-8" standalone="no"?>
<!-- Created with Inkscape (http://www.inkscape.org/) -->

<svg
   xmlns:dc="http://purl.org/dc/elements/1.1/"
   xmlns:cc="http://creativecommons.org/ns#"
   xmlns:rdf="http://www.w3.org/1999/02/22-rdf-syntax-ns#"
   xmlns:svg="http://www.w3.org/2000/svg"
   xmlns="http://www.w3.org/2000/svg"
   xmlns:sodipodi="http://sodipodi.sourceforge.net/DTD/sodipodi-0.dtd"
   xmlns:inkscape="http://www.inkscape.org/namespaces/inkscape"
   width="135.46666mm"
   height="135.46666mm"
   viewBox="0 0 135.46666 135.46665"
   version="1.1"
   id="svg8"
   inkscape:version="0.92.5 (2060ec1f9f, 2020-04-08)"
   sodipodi:docname="despero.svg"
   inkscape:export-filename="/home/viburno/Стільниця/despero.png"
   inkscape:export-xdpi="95"
   inkscape:export-ydpi="95">
  <defs
     id="defs2" />
  <sodipodi:namedview
     id="base"
     pagecolor="#ffffff"
     bordercolor="#666666"
     borderopacity="1.0"
     inkscape:pageopacity="0.0"
     inkscape:pageshadow="2"
     inkscape:zoom="1.3538584"
     inkscape:cx="312.29955"
     inkscape:cy="240.55434"
     inkscape:document-units="mm"
     inkscape:current-layer="text1032"
     showgrid="false"
     inkscape:window-width="1366"
     inkscape:window-height="705"
     inkscape:window-x="0"
     inkscape:window-y="0"
     inkscape:window-maximized="1" />
  <metadata
     id="metadata5">
    <rdf:RDF>
      <cc:Work
         rdf:about="">
        <dc:format>image/svg+xml</dc:format>
        <dc:type
           rdf:resource="http://purl.org/dc/dcmitype/StillImage" />
        <dc:title />
      </cc:Work>
    </rdf:RDF>
  </metadata>
  <g
     inkscape:label="Layer 1"
     inkscape:groupmode="layer"
     id="layer1"
     transform="translate(-15.908173,-48.752937)">
    <circle
       style="opacity:1;fill:#ffffff;fill-opacity:1;stroke:none;stroke-width:2.91340542;stroke-linecap:round;stroke-linejoin:miter;stroke-miterlimit:4;stroke-dasharray:none;stroke-opacity:1;paint-order:normal"
       id="path1038"
       cx="83.641502"
       cy="116.48627"
       r="67.73333" />
    <path
       style="opacity:1;fill:#2b89ff;fill-opacity:1;stroke:none;stroke-width:2.91340542;stroke-linecap:round;stroke-linejoin:miter;stroke-miterlimit:4;stroke-dasharray:none;stroke-opacity:1;paint-order:normal"
       d="m 57.958949,75.267684 v 5.845644 h -5.634405 v 11.404194 h -5.978393 v 11.610168 h 5.837216 v -5.687612 h 5.981026 v 5.687612 h 5.640726 v -5.687612 h 5.98103 v 5.687612 H 75.2857 v -5.687612 h 5.981025 v 5.687612 H 86.98067 V 92.517522 H 81.266725 V 81.113328 h -5.704996 v -5.845644 h -5.981025 v 5.845644 h -5.640729 v -5.845644 z m 0,11.550638 h 5.981026 v 5.693407 h -5.981026 z m 11.621755,0 h 5.981025 v 5.693407 h -5.981025 z"
       id="rect826"
       inkscape:connector-curvature="0" />
    <path
       style="opacity:1;fill:#2b89ff;fill-opacity:1;stroke:none;stroke-width:0.2697098;stroke-linecap:round;stroke-linejoin:miter;stroke-miterlimit:4;stroke-dasharray:none;stroke-opacity:1;paint-order:normal"
       d="m 87.150823,81.002179 v 5.816672 H 110.05509 V 127.38858 H 57.958949 v -17.36837 h -5.602272 v 23.10234 H 116.02822 V 81.002179 Z"
       id="rect949"
       inkscape:connector-curvature="0" />
    <g
       aria-label="despero"
       style="font-style:normal;font-weight:normal;font-size:25.44674301px;line-height:1.25;font-family:sans-serif;letter-spacing:0px;word-spacing:0px;fill:#2b89ff;fill-opacity:1;stroke:none;stroke-width:0.6361686"
       id="text1032">
      <path
         d="m 39.955094,151.20238 q 0,1.75582 0.788849,2.82459 0.788849,1.06876 2.3411,1.06876 0.508935,0 0.94153,-0.0255 0.432594,-0.0509 0.712508,-0.10178 v -6.89607 q -0.356254,-0.22902 -0.941529,-0.3817 -0.559829,-0.15268 -1.145104,-0.15268 -2.697354,0 -2.697354,3.66433 z m 8.575552,6.36168 q -0.508935,0.15268 -1.17055,0.30536 -0.661615,0.12724 -1.399571,0.22903 -0.712509,0.10178 -1.475911,0.15268 -0.737956,0.0763 -1.425018,0.0763 -1.654038,0 -2.951822,-0.48349 -1.297784,-0.48349 -2.18842,-1.37413 -0.890636,-0.91608 -1.374124,-2.18842 -0.458041,-1.29778 -0.458041,-2.90092 0,-1.6286 0.407148,-2.92638 0.407147,-1.32323 1.17055,-2.23931 0.763402,-0.91609 1.857612,-1.39957 1.119657,-0.48349 2.544674,-0.48349 0.788849,0 1.399571,0.15268 0.636169,0.15268 1.272337,0.43259 v -6.05632 l 3.791565,-0.61072 z"
         style="font-style:normal;font-variant:normal;font-weight:bold;font-stretch:normal;font-family:ubuntu;-inkscape-font-specification:ubuntu;fill:#2b89ff;fill-opacity:1;stroke-width:0.6361686"
         id="path873" />
      <path
         d="m 51.456975,151.40595 q 0,-1.78127 0.534382,-3.1045 0.559828,-1.34868 1.450464,-2.23931 0.890636,-0.89064 2.035739,-1.34868 1.170551,-0.45804 2.391994,-0.45804 2.850035,0 4.504074,1.75582 1.654038,1.73038 1.654038,5.1148 0,0.33081 -0.02545,0.73795 -0.02545,0.3817 -0.05089,0.68707 h -8.600999 q 0.127233,1.17055 1.09421,1.85761 0.966976,0.68706 2.595567,0.68706 1.043317,0 2.03574,-0.17813 1.01787,-0.20357 1.654038,-0.48349 l 0.508935,3.07906 q -0.305361,0.15268 -0.814296,0.30536 -0.508935,0.15268 -1.145103,0.25447 -0.610722,0.12723 -1.323231,0.20357 -0.712509,0.0763 -1.425017,0.0763 -1.806719,0 -3.155397,-0.53438 -1.32323,-0.53438 -2.213866,-1.45046 -0.86519,-0.94153 -1.297784,-2.21387 -0.407148,-1.27234 -0.407148,-2.74825 z m 8.90636,-1.45046 q -0.02545,-0.48349 -0.178127,-0.94153 -0.127234,-0.45804 -0.432595,-0.8143 -0.279914,-0.35625 -0.737955,-0.58527 -0.432595,-0.22902 -1.09421,-0.22902 -0.636169,0 -1.09421,0.22902 -0.458042,0.20357 -0.763403,0.55983 -0.30536,0.35625 -0.483488,0.83974 -0.15268,0.45804 -0.22902,0.94153 z"
         style="font-style:normal;font-variant:normal;font-weight:bold;font-stretch:normal;font-family:ubuntu;-inkscape-font-specification:ubuntu;fill:#2b89ff;fill-opacity:1;stroke-width:0.6361686"
         id="path875" />
      <path
         d="m 70.79649,155.27386 q 1.043317,0 1.475911,-0.20358 0.432595,-0.20357 0.432595,-0.78885 0,-0.45804 -0.559828,-0.78885 -0.559829,-0.35625 -1.704932,-0.78884 -0.890636,-0.33081 -1.628592,-0.68707 -0.712509,-0.35625 -1.221443,-0.83974 -0.508935,-0.50893 -0.788849,-1.196 -0.279915,-0.68706 -0.279915,-1.65403 0,-1.88306 1.399571,-2.97727 1.399571,-1.09421 3.842458,-1.09421 1.221444,0 2.341101,0.22902 1.119656,0.20357 1.781272,0.45804 l -0.661616,2.95182 q -0.661615,-0.22902 -1.450464,-0.40715 -0.763402,-0.17812 -1.730378,-0.17812 -1.781272,0 -1.781272,0.99242 0,0.22902 0.07634,0.40715 0.07634,0.17812 0.305361,0.35625 0.22902,0.15268 0.610722,0.35626 0.407147,0.17812 1.017869,0.40714 1.246891,0.45805 2.061186,0.91609 0.814296,0.43259 1.272338,0.96697 0.483488,0.50894 0.661615,1.14511 0.203574,0.63616 0.203574,1.47591 0,1.98484 -1.501358,3.00271 -1.475911,1.01787 -4.198713,1.01787 -1.781272,0 -2.977268,-0.30536 -1.170551,-0.30536 -1.628592,-0.50893 l 0.636169,-3.07906 q 0.966976,0.3817 1.984846,0.61072 1.017869,0.20358 2.010292,0.20358 z"
         style="font-style:normal;font-variant:normal;font-weight:bold;font-stretch:normal;font-family:ubuntu;-inkscape-font-specification:ubuntu;fill:#2b89ff;fill-opacity:1;stroke-width:0.6361686"
         id="path877" />
      <path
         d="m 87.871221,151.40595 q 0,-1.75582 -0.788849,-2.79914 -0.788849,-1.06876 -2.3411,-1.06876 -0.508935,0 -0.94153,0.0509 -0.432594,0.0254 -0.712509,0.0763 v 6.84517 q 0.356255,0.22903 0.916083,0.38171 0.585275,0.15268 1.17055,0.15268 2.697355,0 2.697355,-3.63889 z m 3.867905,-0.10179 q 0,1.55226 -0.381701,2.82459 -0.381701,1.27234 -1.119657,2.18842 -0.737955,0.91609 -1.832165,1.42502 -1.09421,0.50894 -2.519228,0.50894 -0.788849,0 -1.475911,-0.15268 -0.687062,-0.15269 -1.323231,-0.4326 v 5.03846 h -3.791564 v -17.6346 q 0.508935,-0.15268 1.17055,-0.27991 0.661615,-0.15268 1.374124,-0.25447 0.737956,-0.10179 1.475911,-0.15268 0.763402,-0.0763 1.450464,-0.0763 1.654039,0 2.951823,0.50894 1.297784,0.48348 2.18842,1.39957 0.890636,0.89063 1.348677,2.18842 0.483488,1.29778 0.483488,2.90092 z"
         style="font-style:normal;font-variant:normal;font-weight:bold;font-stretch:normal;font-family:ubuntu;-inkscape-font-specification:ubuntu;fill:#2b89ff;fill-opacity:1;stroke-width:0.6361686"
         id="path879" />
      <path
         d="m 94.029289,151.40595 q 0,-1.78127 0.534382,-3.1045 0.559828,-1.34868 1.450464,-2.23931 0.890636,-0.89064 2.03574,-1.34868 1.17055,-0.45804 2.391995,-0.45804 2.85003,0 4.50407,1.75582 1.65404,1.73038 1.65404,5.1148 0,0.33081 -0.0255,0.73795 -0.0254,0.3817 -0.0509,0.68707 h -8.600999 q 0.127234,1.17055 1.09421,1.85761 0.966976,0.68706 2.595569,0.68706 1.04332,0 2.03574,-0.17813 1.01787,-0.20357 1.65404,-0.48349 l 0.50893,3.07906 q -0.30536,0.15268 -0.81429,0.30536 -0.50894,0.15268 -1.14511,0.25447 -0.61072,0.12723 -1.32323,0.20357 -0.71251,0.0763 -1.42502,0.0763 -1.806715,0 -3.155392,-0.53438 -1.323231,-0.53438 -2.213867,-1.45046 -0.865189,-0.94153 -1.297784,-2.21387 -0.407148,-1.27234 -0.407148,-2.74825 z m 8.906361,-1.45046 q -0.0254,-0.48349 -0.17813,-0.94153 -0.12723,-0.45804 -0.43259,-0.8143 -0.27992,-0.35625 -0.73796,-0.58527 -0.43259,-0.22902 -1.09421,-0.22902 -0.636167,0 -1.094208,0.22902 -0.458041,0.20357 -0.763402,0.55983 -0.305361,0.35625 -0.483488,0.83974 -0.152681,0.45804 -0.229021,0.94153 z"
         style="font-style:normal;font-variant:normal;font-weight:bold;font-stretch:normal;font-family:ubuntu;-inkscape-font-specification:ubuntu;fill:#2b89ff;fill-opacity:1;stroke-width:0.6361686"
         id="path881" />
      <path
         d="m 117.59296,147.97064 q -0.50893,-0.12723 -1.196,-0.25447 -0.68706,-0.15268 -1.47591,-0.15268 -0.35625,0 -0.86519,0.0763 -0.48348,0.0509 -0.73795,0.12724 v 10.22959 h -3.79157 v -12.67248 q 1.01787,-0.35625 2.392,-0.66162 1.39957,-0.3308 3.1045,-0.3308 0.30536,0 0.73796,0.0509 0.43259,0.0254 0.86518,0.10179 0.4326,0.0509 0.86519,0.15268 0.4326,0.0763 0.73796,0.20357 z"
         style="font-style:normal;font-variant:normal;font-weight:bold;font-stretch:normal;font-family:ubuntu;-inkscape-font-specification:ubuntu;fill:#2b89ff;fill-opacity:1;stroke-width:0.6361686"
         id="path883" />
      <path
         d="m 132.53017,151.27872 q 0,1.5777 -0.45805,2.90093 -0.45804,1.29778 -1.32323,2.23931 -0.86519,0.91608 -2.08663,1.42502 -1.196,0.50893 -2.69735,0.50893 -1.47592,0 -2.69736,-0.50893 -1.196,-0.50894 -2.06119,-1.42502 -0.86518,-0.94153 -1.34867,-2.23931 -0.48349,-1.32323 -0.48349,-2.90093 0,-1.5777 0.48349,-2.87548 0.50893,-1.29779 1.37412,-2.21387 0.89064,-0.91608 2.08663,-1.42502 1.22145,-0.50893 2.64647,-0.50893 1.45046,0 2.64646,0.50893 1.22144,0.50894 2.08663,1.42502 0.86519,0.91608 1.34868,2.21387 0.48349,1.29778 0.48349,2.87548 z m -3.86791,0 q 0,-1.75583 -0.71251,-2.74825 -0.68706,-1.01787 -1.98484,-1.01787 -1.29779,0 -2.0103,1.01787 -0.71251,0.99242 -0.71251,2.74825 0,1.75582 0.71251,2.79914 0.71251,1.01787 2.0103,1.01787 1.29778,0 1.98484,-1.01787 0.71251,-1.04332 0.71251,-2.79914 z"
         style="font-style:normal;font-variant:normal;font-weight:bold;font-stretch:normal;font-family:ubuntu;-inkscape-font-specification:ubuntu;fill:#2b89ff;fill-opacity:1;stroke-width:0.6361686"
         id="path885" />
    </g>
  </g>
</svg>
