<?xml version="1.0" encoding="UTF-8" standalone="no"?>
<!-- Created with Inkscape (http://www.inkscape.org/) -->

<svg
   width="126.68941mm"
   height="124.99689mm"
   viewBox="0 0 126.68941 124.99688"
   version="1.1"
   id="svg5"
   inkscape:version="1.1.2 (0a00cf5339, 2022-02-04)"
   sodipodi:docname="sonja.svg"
   xmlns:inkscape="http://www.inkscape.org/namespaces/inkscape"
   xmlns:sodipodi="http://sodipodi.sourceforge.net/DTD/sodipodi-0.dtd"
   xmlns="http://www.w3.org/2000/svg"
   xmlns:svg="http://www.w3.org/2000/svg">
  <sodipodi:namedview
     id="namedview7"
     pagecolor="#ffffff"
     bordercolor="#666666"
     borderopacity="1.0"
     inkscape:pageshadow="2"
     inkscape:pageopacity="0.0"
     inkscape:pagecheckerboard="0"
     inkscape:document-units="mm"
     showgrid="false"
     inkscape:zoom="0.77978858"
     inkscape:cx="239.16739"
     inkscape:cy="205.82502"
     inkscape:window-width="1280"
     inkscape:window-height="656"
     inkscape:window-x="0"
     inkscape:window-y="27"
     inkscape:window-maximized="1"
     inkscape:current-layer="layer1" />
  <defs
     id="defs2" />
  <g
     inkscape:label="Tavolo 1"
     inkscape:groupmode="layer"
     id="layer1"
     transform="translate(-46.359673,-102.29314)">
    <rect
       style="fill:#241c1c;fill-opacity:1;stroke:none;stroke-width:0.283926"
       id="rect15271"
       width="126.68941"
       height="124.99689"
       x="46.359673"
       y="102.29314"
       ry="62.498447" />
    <path
       style="fill:#d582c3;fill-opacity:1;stroke:none;stroke-width:0.264583px;stroke-linecap:butt;stroke-linejoin:miter;stroke-opacity:1"
       d="m 79.989528,118.72735 2.116682,32.56 10.316142,32.03357 h 33.170878 l 10.71397,-32.18674 2.64565,-32.42543 -29.4426,12.80191 z"
       id="path15430" />
    <g
       id="g26169"
       transform="translate(-0.52916667)">
      <path
         id="path240"
         style="fill:#8c2d77;fill-opacity:1;stroke:none;stroke-width:0.999999px;stroke-linecap:butt;stroke-linejoin:miter;stroke-opacity:1"
         d="m 285.39844,94.09375 -111.2793,48.38477 101.2793,74.16796 z m -111.2793,48.38477 -111.574218,-48.314458 8,123.060548 z"
         transform="matrix(0.26458333,0,0,0.26458333,63.970352,93.81311)"
         sodipodi:nodetypes="cccccccc" />
      <path
         style="fill:#cc66b6;fill-opacity:1;stroke:none;stroke-width:0.264583px;stroke-linecap:butt;stroke-linejoin:miter;stroke-opacity:1"
         d="m 109.8876,163.53862 16.2348,19.7823 10.71397,-32.18674 z"
         id="path232" />
      <path
         style="fill:#d582c3;fill-opacity:1;stroke:none;stroke-width:0.264583px;stroke-linecap:butt;stroke-linejoin:miter;stroke-opacity:1"
         d="m 110.03942,131.51066 26.79695,19.62352 -26.94877,12.40444 z"
         id="path230" />
      <path
         style="fill:#a13a8b;fill-opacity:1;stroke:none;stroke-width:0.264583px;stroke-linecap:butt;stroke-linejoin:miter;stroke-opacity:1"
         d="M 126.1224,183.32092 H 92.951518 l 16.936082,-19.7823 z"
         id="path234" />
      <path
         style="fill:#b3439b;fill-opacity:1;stroke:none;stroke-width:0.264583px;stroke-linecap:butt;stroke-linejoin:miter;stroke-opacity:1"
         d="M 92.951516,183.32092 82.635377,151.28735 109.8876,163.53862 Z"
         id="path236" />
      <path
         style="fill:#c348a8;fill-opacity:1;stroke:none;stroke-width:0.264583px;stroke-linecap:butt;stroke-linejoin:miter;stroke-opacity:1"
         d="m 82.635375,151.28735 27.404045,-19.77669 -0.15182,32.02796 z"
         id="path238" />
    </g>
    <g
       aria-label="Sonja"
       id="text16544-9"
       style="font-size:44.1947px;line-height:1.25;fill:#d1d1d1;fill-opacity:1;stroke-width:1.10487"
       transform="translate(-0.07897025,0.52916663)">
      <path
         id="path26289-4"
         style="font-weight:bold;font-family:Karumbi;-inkscape-font-specification:'Karumbi Bold';fill:#d1d1d1;fill-opacity:1;stroke-width:4.17589"
         d="m 138.67383,327.04883 c -0.22889,-0.007 -1.03977,0.68433 -1.35547,0.9375 -3.81119,3.05626 -4.60917,3.5177 -5.39453,7.58008 -6.77087,0.51138 -12.2638,1.80839 -16.49024,3.88281 -2.0341,-3.36732 -2.98371,-3.54772 -7.5,-5.08984 -0.40636,-0.13875 -1.50943,-0.55365 -1.61718,-0.39454 -0.68888,1.01681 -0.35833,4.73389 -0.19532,5.875 0.37025,2.5917 0.34237,4.99915 2.35743,6.28125 -0.0687,0.31047 -0.15193,0.57153 -0.20704,0.92969 -0.11135,0.66815 -0.27923,1.5017 -0.50195,2.50391 -0.22271,1.00223 0.27898,2.11687 1.50391,3.34179 3.22934,2.22713 11.02417,5.29001 23.38476,9.1875 10.91296,3.56342 17.03677,6.45843 18.37305,8.68555 -2.44985,4.78834 -8.68493,7.23824 -18.70703,7.34961 -4.1202,-0.11137 -8.24113,-0.33391 -12.36133,-0.66797 -4.1202,-0.44543 -7.57155,-0.66797 -10.35547,-0.66797 -0.66814,-0.44543 -1.39238,-0.66992 -2.17187,-0.66992 -0.7795,0 -1.61501,0.39043 -2.50586,1.16992 -0.77951,0.66815 -0.83416,2.00533 -0.16602,4.00977 0.66814,1.22492 2.72763,2.06043 6.17969,2.50586 1.33628,0.22274 2.61687,0.33398 3.8418,0.33398 1.22492,0 2.1717,0.0546 2.83984,0.16602 9.68804,0.77949 17.42625,0.61355 23.2168,-0.5 9.91074,-1.89307 15.64608,-6.07059 17.20508,-12.5293 0.55675,-2.67255 -0.6672,-5.17713 -3.67383,-7.51562 -1.22493,-1.00221 -2.50552,-1.83772 -3.8418,-2.50586 -1.44764,-0.66815 -3.06204,-1.33579 -4.84375,-2.00391 -1.78171,-0.66814 -4.06569,-1.33576 -6.84961,-2.00391 -2.78392,-0.77949 -6.68035,-1.89413 -11.69141,-3.34179 -5.01105,-1.44764 -9.13198,-3.17333 -12.36132,-5.17774 0.11137,-0.11132 0.16601,-0.27921 0.16601,-0.50195 4.56563,-2.78392 9.24291,-4.62086 14.03125,-5.51172 2.22714,-0.44543 4.51112,-0.66797 6.84961,-0.66797 2.33849,-0.11132 5.12222,-0.27921 8.35156,-0.50195 2.00443,-0.33409 3.00586,-1.39018 3.00586,-3.17188 0,-1.559 -0.94678,-2.72832 -2.83984,-3.50781 -0.89341,0.0715 -1.9553,0.10031 -2.89453,0.16016 -0.15114,-0.79721 -0.36893,-1.63133 -0.55078,-2.50196 -0.23573,-1.12848 -1.1948,-4.73617 -2.19336,-5.45507 -0.01,-0.007 -0.0219,-0.0112 -0.0371,-0.0117 z m -1.96094,3.49609 c 0.0168,-1.8e-4 0.0299,0.003 0.0391,0.01 0.33714,0.23282 0.60341,1.04367 0.74805,1.45508 0.49397,1.40503 1.04616,2.8837 0.68164,4.39257 -0.58284,-0.0594 -1.32849,-0.58918 -1.94922,-0.75586 -0.31558,-0.085 -0.65233,-0.10706 -0.96875,-0.18945 -0.347,-0.0903 -0.24971,-0.10945 -0.59765,-0.16992 -0.11151,-0.0189 -0.28599,-0.0389 -0.4004,-0.0352 -0.0185,-0.002 -0.10679,0.0543 -0.12304,0.043 -0.0645,-0.04 0.3297,-0.77359 0.36523,-0.90625 0.0728,-0.27386 0.0335,-0.56368 0.1211,-0.83203 0.10387,-0.31797 0.26449,-0.57944 0.41015,-0.875 0.30023,-0.60899 0.3226,-1.37085 0.95508,-1.80273 0.0734,-0.05 0.55602,-0.33221 0.71875,-0.33399 z m -26.4707,7.0625 c 0.20786,-0.0113 0.6171,0.0704 0.68945,0.0899 0.72425,0.19766 0.99187,0.90787 1.4668,1.38281 0.23047,0.23055 0.46298,0.42589 0.66211,0.6914 0.16803,0.22413 0.22668,0.50994 0.38281,0.74414 0.0757,0.11339 0.67745,0.67519 0.63086,0.73438 -0.0113,0.0151 -0.10837,-0.008 -0.125,0 -0.107,0.034 -0.2627,0.11083 -0.35938,0.16602 -0.30168,0.17234 -0.20694,0.15906 -0.49804,0.35937 -0.26548,0.18255 -0.5682,0.31522 -0.83203,0.5 -0.51904,0.36321 -1.03577,1.11004 -1.55469,1.35938 -0.82747,-1.30288 -0.79688,-2.88117 -0.79688,-4.3711 0,-0.43612 -0.0169,-1.28963 0.21875,-1.62109 0.015,-0.0212 0.057,-0.032 0.11524,-0.0352 z m 190.72461,0.69336 c -1.29453,-0.0417 -2.27717,0.48068 -2.94532,1.56641 -0.89083,1.44763 -0.61169,2.95076 0.83594,4.50976 0,0.11137 0.0566,0.16797 0.16797,0.16797 1.00223,1.11358 2.11492,1.39076 3.33984,0.83399 1.33624,-0.66815 2.11517,-1.83551 2.33789,-3.50586 -0.33403,-1.22495 -1.11297,-2.3396 -2.33789,-3.3418 -0.5011,-0.13919 -0.96692,-0.21655 -1.39843,-0.23047 z m -107.8086,1.32031 c -4.54289,0.0598 -9.1196,2.09188 -13.73047,6.09375 l -0.50195,1.00196 c -2.78392,2.11578 -5.45637,5.6784 -8.01758,10.68945 -1.11356,1.89306 -2.00373,4.00916 -2.67187,6.34766 -0.89085,2.22715 -1.66975,4.23197 -2.33789,6.01367 -1.33628,3.56341 -0.66866,7.12604 2.0039,10.68945 2.67257,3.56342 5.84672,5.06654 9.52149,4.50977 6.57004,-0.77949 11.96962,-2.22602 16.20117,-4.3418 5.79055,-2.78392 9.91146,-6.45977 12.36133,-11.02539 3.7861,-6.79277 4.56501,-13.19573 2.33789,-19.20899 -0.89086,-2.56117 -2.33739,-4.73195 -4.3418,-6.51367 -2.00443,-1.89306 -4.34307,-3.17365 -7.01562,-3.84179 -1.26669,-0.29231 -2.53659,-0.43082 -3.8086,-0.41407 z m 0.87891,6.63282 c 2.21669,-0.006 4.14094,0.76071 5.76953,2.29882 2.00443,1.89307 3.00586,4.73341 3.00586,8.51954 0,3.78612 -0.8355,6.90365 -2.50586,9.35351 -1.67035,2.3385 -3.78645,4.39995 -6.34766,6.18164 -2.44985,1.78172 -5.17696,3.17358 -8.18359,4.17578 -2.89528,1.00223 -5.17926,1.44731 -6.84961,1.33594 -1.55899,-0.11137 -2.6717,-0.33391 -3.33984,-0.66797 -0.66814,-0.4454 -1.33577,-0.77921 -2.00391,-1.00195 -0.22271,-0.89086 -0.55848,-1.72637 -1.00391,-2.50586 -0.33402,-0.89086 -0.38873,-1.78297 -0.16601,-2.67383 0.7795,-4.3429 2.67306,-8.85231 5.67969,-13.5293 3.45205,-5.3451 7.29383,-8.29671 11.52539,-8.85351 1.44763,-0.33406 2.39441,-1.16762 2.83984,-2.50391 0.54287,-0.0835 1.06853,-0.1276 1.58008,-0.1289 z m 63.37305,1.07617 c -0.58289,0.009 -1.18808,0.0815 -1.81446,0.2207 -1.89306,0.33406 -3.78662,0.5566 -5.67968,0.66797 -3.78613,0.22269 -7.62792,2.39541 -11.5254,6.51563 -5.45645,5.90188 -10.69009,12.69334 -15.70117,20.37695 0,-1.7817 0.11125,-3.78457 0.33399,-6.01172 1.11357,-9.01989 0.83441,-15.36821 -0.83594,-19.04297 -1.33629,-1.78172 -2.89409,-2.2268 -4.67578,-1.33594 -0.11137,0 -0.61307,0.27917 -1.50391,0.83594 -0.77954,0.5568 -1.05672,1.44696 -0.83398,2.67188 0.11137,1.22492 0.66772,2.1151 1.66992,2.67187 0.33411,1.55901 0.38876,3.56383 0.16602,6.01367 -0.22269,2.44987 -0.4999,6.18036 -0.83399,11.19141 -0.22271,4.89968 0.3883,9.07527 1.83594,12.52734 1.44763,1.44764 3.06398,1.67018 4.8457,0.66797 2.3385,-2.33849 4.45266,-5.01094 6.3457,-8.01758 1.89307,-3.11798 3.84325,-6.12426 5.84766,-9.01953 2.00444,-3.00664 4.22985,-5.73571 6.67969,-8.18555 2.44984,-2.44981 5.40145,-4.1755 8.85351,-5.17773 6.01326,-1.89306 9.68911,-0.61248 11.0254,3.8418 0.55678,2.00443 0.61144,4.34307 0.16601,7.01562 -0.4454,2.56121 -1.28091,5.12241 -2.50586,7.6836 -1.11355,2.44986 -2.56008,4.67723 -4.3418,6.68164 -1.67035,1.89306 -3.5073,3.23025 -5.51171,4.00976 -2.00444,0.77949 -2.72868,2.11477 -2.17188,4.00781 0.22269,0.77949 0.66779,1.39247 1.33594,1.8379 0.77951,0.44545 1.66967,0.5001 2.67187,0.16601 1.00221,-0.22266 2.00561,-0.44523 3.00782,-0.66797 2.78392,-0.5568 5.95611,-3.89686 9.51953,-10.02148 2.11578,-3.56342 3.56426,-7.35053 4.34375,-11.35938 1.89306,-9.2426 -0.50025,-15.86813 -7.18164,-19.87695 -1.07182,-0.61247 -2.24891,-0.90781 -3.53125,-0.88867 z m 78.18359,0.69531 c -0.16007,0.003 -0.3232,0.0134 -0.49023,0.0273 -1.33629,0.11137 -3.39577,1.00153 -6.17969,2.67188 -2.67256,1.67035 -5.67883,4.06561 -9.01953,7.18359 -3.22936,3.11799 -5.51335,5.45665 -6.84961,7.01563 -1.22492,1.559 -2.28297,3.22804 -3.17383,5.00976 -0.89084,1.7817 -1.39058,3.72993 -1.50195,5.84571 -0.11137,2.00441 0.49964,3.56416 1.83593,4.67773 1.33627,1.11355 2.89602,1.72652 4.67774,1.83789 1.89306,0.11137 3.78662,-0.11117 5.67969,-0.66797 2.00441,-0.55677 3.39626,-1.16974 4.17578,-1.83789 0.89083,-0.77949 1.83761,-1.615 2.83984,-2.50586 1.00221,-1.0022 2.67127,-2.78449 5.00977,-5.3457 2.33849,-2.56121 4.34332,-4.67535 6.01367,-6.3457 -1.67035,6.23599 -1.83627,10.85666 -0.5,13.86328 0.89086,1.89306 2.33741,3.39619 4.34179,4.50976 2.11578,1.22495 5.12204,1.7813 9.01954,1.66993 4.00884,0 8.0185,-0.49975 12.02734,-1.50196 1.55898,-0.44543 2.56043,-1.05837 3.00586,-1.83789 0.5568,-0.77949 0.77934,-1.5584 0.66797,-2.33789 -0.11137,-0.77951 -0.49985,-1.44908 -1.16797,-2.00586 -0.66815,-0.5568 -1.56025,-0.77934 -2.67383,-0.66797 -6.90411,1.55901 -11.74732,2.11535 -14.53125,1.66992 -2.7839,-0.55675 -4.39832,-1.89203 -4.84375,-4.00781 -0.44543,-2.11578 -0.1116,-4.84485 1.00195,-8.18554 1.22495,-3.3407 2.39427,-7.0712 3.50782,-11.19141 0.22271,-1.33627 -0.0564,-2.33772 -0.83594,-3.00586 -0.77949,-0.77954 -1.72627,-1.05868 -2.83984,-0.83594 -1.00221,0.11137 -1.83577,0.44518 -2.50391,1.00196 -0.66815,0.44543 -1.39239,0.94713 -2.17188,1.5039 0.77949,-2.44984 0.22315,-4.2868 -1.66992,-5.51172 -0.7795,-0.4872 -1.73104,-0.71968 -2.85156,-0.69531 z m -36.14844,2.6582 c -0.475,1e-5 -1.00521,0.12445 -1.58984,0.375 -2.00441,0.77949 -3.7867,5.7906 -5.3457,15.03321 -0.77949,4.67699 -1.5584,9.29961 -2.33789,13.86523 -0.77949,4.56562 -1.66968,9.01843 -2.67188,13.36133 -1.0022,4.45427 -2.56195,8.68647 -4.67773,12.69531 -2.00444,4.12019 -4.95605,6.23629 -8.85352,6.34766 -3.8975,0.22271 -7.57139,-1.44831 -11.02344,-5.01172 l -0.16797,-0.66797 c -0.11137,-0.11137 -0.16601,-0.22261 -0.16601,-0.33398 -0.66815,-2.3385 -2.00536,-3.28528 -4.00977,-2.83985 -0.77951,0.22272 -1.44713,0.6678 -2.0039,1.33594 -0.5568,0.77949 -0.7247,1.72627 -0.50196,2.83984 0.89084,3.11799 3.2295,5.95835 7.01563,8.51953 1.67035,1.11355 3.45264,1.94906 5.3457,2.50586 1.78172,0.66817 3.34147,0.89071 4.67774,0.66797 1.33629,-0.22271 2.61687,-0.50185 3.84179,-0.83593 1.33629,-0.33404 2.39434,-0.61125 3.17383,-0.83399 0.77952,-0.11137 1.33586,-0.22457 1.66992,-0.33594 0.44541,-0.11132 0.77922,-0.27726 1.00196,-0.5 6.01325,-7.01548 10.18884,-16.9264 12.52734,-29.73242 1.0022,-5.45648 1.94898,-10.96926 2.83984,-16.53711 0.89086,-5.45648 2.28272,-10.74481 4.17578,-15.86718 0.11135,-1.00221 -0.22246,-2.00559 -1.00195,-3.00782 -0.48718,-0.69597 -1.12629,-1.04297 -1.91797,-1.04297 z m 30.48047,7.5586 c 0.66815,0.89083 1.61495,1.39058 2.83984,1.50195 1.11358,-0.22269 2.00374,-0.44523 2.67188,-0.66797 -1.67035,1.78172 -3.28475,3.78655 -4.84375,6.01367 -5.79054,8.01769 -10.91291,11.41438 -15.36719,10.18946 1.00221,-3.45207 3.00704,-6.56959 6.01367,-9.35352 3.00662,-2.89527 5.90163,-5.45647 8.68555,-7.68359 z"
         transform="matrix(0.26458333,0,0,0.26458333,46.88884,102.29314)" />
    </g>
    <g
       aria-label="Sonja"
       id="text16544"
       style="font-size:44.1947px;line-height:1.25;fill:#ffffff;stroke-width:1.10487">
      <path
         id="path26289"
         style="font-weight:bold;font-family:Karumbi;-inkscape-font-specification:'Karumbi Bold';stroke-width:4.17589"
         d="m 138.67383,327.04883 c -0.22889,-0.007 -1.03977,0.68433 -1.35547,0.9375 -3.81119,3.05626 -4.60917,3.5177 -5.39453,7.58008 -6.77087,0.51138 -12.2638,1.80839 -16.49024,3.88281 -2.0341,-3.36732 -2.98371,-3.54772 -7.5,-5.08984 -0.40636,-0.13875 -1.50943,-0.55365 -1.61718,-0.39454 -0.68888,1.01681 -0.35833,4.73389 -0.19532,5.875 0.37025,2.5917 0.34237,4.99915 2.35743,6.28125 -0.0687,0.31047 -0.15193,0.57153 -0.20704,0.92969 -0.11135,0.66815 -0.27923,1.5017 -0.50195,2.50391 -0.22271,1.00223 0.27898,2.11687 1.50391,3.34179 3.22934,2.22713 11.02417,5.29001 23.38476,9.1875 10.91296,3.56342 17.03677,6.45843 18.37305,8.68555 -2.44985,4.78834 -8.68493,7.23824 -18.70703,7.34961 -4.1202,-0.11137 -8.24113,-0.33391 -12.36133,-0.66797 -4.1202,-0.44543 -7.57155,-0.66797 -10.35547,-0.66797 -0.66814,-0.44543 -1.39238,-0.66992 -2.17187,-0.66992 -0.7795,0 -1.61501,0.39043 -2.50586,1.16992 -0.77951,0.66815 -0.83416,2.00533 -0.16602,4.00977 0.66814,1.22492 2.72763,2.06043 6.17969,2.50586 1.33628,0.22274 2.61687,0.33398 3.8418,0.33398 1.22492,0 2.1717,0.0546 2.83984,0.16602 9.68804,0.77949 17.42625,0.61355 23.2168,-0.5 9.91074,-1.89307 15.64608,-6.07059 17.20508,-12.5293 0.55675,-2.67255 -0.6672,-5.17713 -3.67383,-7.51562 -1.22493,-1.00221 -2.50552,-1.83772 -3.8418,-2.50586 -1.44764,-0.66815 -3.06204,-1.33579 -4.84375,-2.00391 -1.78171,-0.66814 -4.06569,-1.33576 -6.84961,-2.00391 -2.78392,-0.77949 -6.68035,-1.89413 -11.69141,-3.34179 -5.01105,-1.44764 -9.13198,-3.17333 -12.36132,-5.17774 0.11137,-0.11132 0.16601,-0.27921 0.16601,-0.50195 4.56563,-2.78392 9.24291,-4.62086 14.03125,-5.51172 2.22714,-0.44543 4.51112,-0.66797 6.84961,-0.66797 2.33849,-0.11132 5.12222,-0.27921 8.35156,-0.50195 2.00443,-0.33409 3.00586,-1.39018 3.00586,-3.17188 0,-1.559 -0.94678,-2.72832 -2.83984,-3.50781 -0.89341,0.0715 -1.9553,0.10031 -2.89453,0.16016 -0.15114,-0.79721 -0.36893,-1.63133 -0.55078,-2.50196 -0.23573,-1.12848 -1.1948,-4.73617 -2.19336,-5.45507 -0.01,-0.007 -0.0219,-0.0112 -0.0371,-0.0117 z m -1.96094,3.49609 c 0.0168,-1.8e-4 0.0299,0.003 0.0391,0.01 0.33714,0.23282 0.60341,1.04367 0.74805,1.45508 0.49397,1.40503 1.04616,2.8837 0.68164,4.39257 -0.58284,-0.0594 -1.32849,-0.58918 -1.94922,-0.75586 -0.31558,-0.085 -0.65233,-0.10706 -0.96875,-0.18945 -0.347,-0.0903 -0.24971,-0.10945 -0.59765,-0.16992 -0.11151,-0.0189 -0.28599,-0.0389 -0.4004,-0.0352 -0.0185,-0.002 -0.10679,0.0543 -0.12304,0.043 -0.0645,-0.04 0.3297,-0.77359 0.36523,-0.90625 0.0728,-0.27386 0.0335,-0.56368 0.1211,-0.83203 0.10387,-0.31797 0.26449,-0.57944 0.41015,-0.875 0.30023,-0.60899 0.3226,-1.37085 0.95508,-1.80273 0.0734,-0.05 0.55602,-0.33221 0.71875,-0.33399 z m -26.4707,7.0625 c 0.20786,-0.0113 0.6171,0.0704 0.68945,0.0899 0.72425,0.19766 0.99187,0.90787 1.4668,1.38281 0.23047,0.23055 0.46298,0.42589 0.66211,0.6914 0.16803,0.22413 0.22668,0.50994 0.38281,0.74414 0.0757,0.11339 0.67745,0.67519 0.63086,0.73438 -0.0113,0.0151 -0.10837,-0.008 -0.125,0 -0.107,0.034 -0.2627,0.11083 -0.35938,0.16602 -0.30168,0.17234 -0.20694,0.15906 -0.49804,0.35937 -0.26548,0.18255 -0.5682,0.31522 -0.83203,0.5 -0.51904,0.36321 -1.03577,1.11004 -1.55469,1.35938 -0.82747,-1.30288 -0.79688,-2.88117 -0.79688,-4.3711 0,-0.43612 -0.0169,-1.28963 0.21875,-1.62109 0.015,-0.0212 0.057,-0.032 0.11524,-0.0352 z m 190.72461,0.69336 c -1.29453,-0.0417 -2.27717,0.48068 -2.94532,1.56641 -0.89083,1.44763 -0.61169,2.95076 0.83594,4.50976 0,0.11137 0.0566,0.16797 0.16797,0.16797 1.00223,1.11358 2.11492,1.39076 3.33984,0.83399 1.33624,-0.66815 2.11517,-1.83551 2.33789,-3.50586 -0.33403,-1.22495 -1.11297,-2.3396 -2.33789,-3.3418 -0.5011,-0.13919 -0.96692,-0.21655 -1.39843,-0.23047 z m -107.8086,1.32031 c -4.54289,0.0598 -9.1196,2.09188 -13.73047,6.09375 l -0.50195,1.00196 c -2.78392,2.11578 -5.45637,5.6784 -8.01758,10.68945 -1.11356,1.89306 -2.00373,4.00916 -2.67187,6.34766 -0.89085,2.22715 -1.66975,4.23197 -2.33789,6.01367 -1.33628,3.56341 -0.66866,7.12604 2.0039,10.68945 2.67257,3.56342 5.84672,5.06654 9.52149,4.50977 6.57004,-0.77949 11.96962,-2.22602 16.20117,-4.3418 5.79055,-2.78392 9.91146,-6.45977 12.36133,-11.02539 3.7861,-6.79277 4.56501,-13.19573 2.33789,-19.20899 -0.89086,-2.56117 -2.33739,-4.73195 -4.3418,-6.51367 -2.00443,-1.89306 -4.34307,-3.17365 -7.01562,-3.84179 -1.26669,-0.29231 -2.53659,-0.43082 -3.8086,-0.41407 z m 0.87891,6.63282 c 2.21669,-0.006 4.14094,0.76071 5.76953,2.29882 2.00443,1.89307 3.00586,4.73341 3.00586,8.51954 0,3.78612 -0.8355,6.90365 -2.50586,9.35351 -1.67035,2.3385 -3.78645,4.39995 -6.34766,6.18164 -2.44985,1.78172 -5.17696,3.17358 -8.18359,4.17578 -2.89528,1.00223 -5.17926,1.44731 -6.84961,1.33594 -1.55899,-0.11137 -2.6717,-0.33391 -3.33984,-0.66797 -0.66814,-0.4454 -1.33577,-0.77921 -2.00391,-1.00195 -0.22271,-0.89086 -0.55848,-1.72637 -1.00391,-2.50586 -0.33402,-0.89086 -0.38873,-1.78297 -0.16601,-2.67383 0.7795,-4.3429 2.67306,-8.85231 5.67969,-13.5293 3.45205,-5.3451 7.29383,-8.29671 11.52539,-8.85351 1.44763,-0.33406 2.39441,-1.16762 2.83984,-2.50391 0.54287,-0.0835 1.06853,-0.1276 1.58008,-0.1289 z m 63.37305,1.07617 c -0.58289,0.009 -1.18808,0.0815 -1.81446,0.2207 -1.89306,0.33406 -3.78662,0.5566 -5.67968,0.66797 -3.78613,0.22269 -7.62792,2.39541 -11.5254,6.51563 -5.45645,5.90188 -10.69009,12.69334 -15.70117,20.37695 0,-1.7817 0.11125,-3.78457 0.33399,-6.01172 1.11357,-9.01989 0.83441,-15.36821 -0.83594,-19.04297 -1.33629,-1.78172 -2.89409,-2.2268 -4.67578,-1.33594 -0.11137,0 -0.61307,0.27917 -1.50391,0.83594 -0.77954,0.5568 -1.05672,1.44696 -0.83398,2.67188 0.11137,1.22492 0.66772,2.1151 1.66992,2.67187 0.33411,1.55901 0.38876,3.56383 0.16602,6.01367 -0.22269,2.44987 -0.4999,6.18036 -0.83399,11.19141 -0.22271,4.89968 0.3883,9.07527 1.83594,12.52734 1.44763,1.44764 3.06398,1.67018 4.8457,0.66797 2.3385,-2.33849 4.45266,-5.01094 6.3457,-8.01758 1.89307,-3.11798 3.84325,-6.12426 5.84766,-9.01953 2.00444,-3.00664 4.22985,-5.73571 6.67969,-8.18555 2.44984,-2.44981 5.40145,-4.1755 8.85351,-5.17773 6.01326,-1.89306 9.68911,-0.61248 11.0254,3.8418 0.55678,2.00443 0.61144,4.34307 0.16601,7.01562 -0.4454,2.56121 -1.28091,5.12241 -2.50586,7.6836 -1.11355,2.44986 -2.56008,4.67723 -4.3418,6.68164 -1.67035,1.89306 -3.5073,3.23025 -5.51171,4.00976 -2.00444,0.77949 -2.72868,2.11477 -2.17188,4.00781 0.22269,0.77949 0.66779,1.39247 1.33594,1.8379 0.77951,0.44545 1.66967,0.5001 2.67187,0.16601 1.00221,-0.22266 2.00561,-0.44523 3.00782,-0.66797 2.78392,-0.5568 5.95611,-3.89686 9.51953,-10.02148 2.11578,-3.56342 3.56426,-7.35053 4.34375,-11.35938 1.89306,-9.2426 -0.50025,-15.86813 -7.18164,-19.87695 -1.07182,-0.61247 -2.24891,-0.90781 -3.53125,-0.88867 z m 78.18359,0.69531 c -0.16007,0.003 -0.3232,0.0134 -0.49023,0.0273 -1.33629,0.11137 -3.39577,1.00153 -6.17969,2.67188 -2.67256,1.67035 -5.67883,4.06561 -9.01953,7.18359 -3.22936,3.11799 -5.51335,5.45665 -6.84961,7.01563 -1.22492,1.559 -2.28297,3.22804 -3.17383,5.00976 -0.89084,1.7817 -1.39058,3.72993 -1.50195,5.84571 -0.11137,2.00441 0.49964,3.56416 1.83593,4.67773 1.33627,1.11355 2.89602,1.72652 4.67774,1.83789 1.89306,0.11137 3.78662,-0.11117 5.67969,-0.66797 2.00441,-0.55677 3.39626,-1.16974 4.17578,-1.83789 0.89083,-0.77949 1.83761,-1.615 2.83984,-2.50586 1.00221,-1.0022 2.67127,-2.78449 5.00977,-5.3457 2.33849,-2.56121 4.34332,-4.67535 6.01367,-6.3457 -1.67035,6.23599 -1.83627,10.85666 -0.5,13.86328 0.89086,1.89306 2.33741,3.39619 4.34179,4.50976 2.11578,1.22495 5.12204,1.7813 9.01954,1.66993 4.00884,0 8.0185,-0.49975 12.02734,-1.50196 1.55898,-0.44543 2.56043,-1.05837 3.00586,-1.83789 0.5568,-0.77949 0.77934,-1.5584 0.66797,-2.33789 -0.11137,-0.77951 -0.49985,-1.44908 -1.16797,-2.00586 -0.66815,-0.5568 -1.56025,-0.77934 -2.67383,-0.66797 -6.90411,1.55901 -11.74732,2.11535 -14.53125,1.66992 -2.7839,-0.55675 -4.39832,-1.89203 -4.84375,-4.00781 -0.44543,-2.11578 -0.1116,-4.84485 1.00195,-8.18554 1.22495,-3.3407 2.39427,-7.0712 3.50782,-11.19141 0.22271,-1.33627 -0.0564,-2.33772 -0.83594,-3.00586 -0.77949,-0.77954 -1.72627,-1.05868 -2.83984,-0.83594 -1.00221,0.11137 -1.83577,0.44518 -2.50391,1.00196 -0.66815,0.44543 -1.39239,0.94713 -2.17188,1.5039 0.77949,-2.44984 0.22315,-4.2868 -1.66992,-5.51172 -0.7795,-0.4872 -1.73104,-0.71968 -2.85156,-0.69531 z m -36.14844,2.6582 c -0.475,1e-5 -1.00521,0.12445 -1.58984,0.375 -2.00441,0.77949 -3.7867,5.7906 -5.3457,15.03321 -0.77949,4.67699 -1.5584,9.29961 -2.33789,13.86523 -0.77949,4.56562 -1.66968,9.01843 -2.67188,13.36133 -1.0022,4.45427 -2.56195,8.68647 -4.67773,12.69531 -2.00444,4.12019 -4.95605,6.23629 -8.85352,6.34766 -3.8975,0.22271 -7.57139,-1.44831 -11.02344,-5.01172 l -0.16797,-0.66797 c -0.11137,-0.11137 -0.16601,-0.22261 -0.16601,-0.33398 -0.66815,-2.3385 -2.00536,-3.28528 -4.00977,-2.83985 -0.77951,0.22272 -1.44713,0.6678 -2.0039,1.33594 -0.5568,0.77949 -0.7247,1.72627 -0.50196,2.83984 0.89084,3.11799 3.2295,5.95835 7.01563,8.51953 1.67035,1.11355 3.45264,1.94906 5.3457,2.50586 1.78172,0.66817 3.34147,0.89071 4.67774,0.66797 1.33629,-0.22271 2.61687,-0.50185 3.84179,-0.83593 1.33629,-0.33404 2.39434,-0.61125 3.17383,-0.83399 0.77952,-0.11137 1.33586,-0.22457 1.66992,-0.33594 0.44541,-0.11132 0.77922,-0.27726 1.00196,-0.5 6.01325,-7.01548 10.18884,-16.9264 12.52734,-29.73242 1.0022,-5.45648 1.94898,-10.96926 2.83984,-16.53711 0.89086,-5.45648 2.28272,-10.74481 4.17578,-15.86718 0.11135,-1.00221 -0.22246,-2.00559 -1.00195,-3.00782 -0.48718,-0.69597 -1.12629,-1.04297 -1.91797,-1.04297 z m 30.48047,7.5586 c 0.66815,0.89083 1.61495,1.39058 2.83984,1.50195 1.11358,-0.22269 2.00374,-0.44523 2.67188,-0.66797 -1.67035,1.78172 -3.28475,3.78655 -4.84375,6.01367 -5.79054,8.01769 -10.91291,11.41438 -15.36719,10.18946 1.00221,-3.45207 3.00704,-6.56959 6.01367,-9.35352 3.00662,-2.89527 5.90163,-5.45647 8.68555,-7.68359 z"
         transform="matrix(0.26458333,0,0,0.26458333,46.88884,102.29314)" />
    </g>
  </g>
</svg>
