# Blender v3.0.1 OBJ File: ''
# www.blender.org
mtllib skybox.mtl
o Cube_Cube.001
v 1.000000 -1.000000 -1.000000
v 1.000000 1.000000 -1.000000
v 1.000000 -1.000000 1.000000
v 1.000000 1.000000 1.000000
v -1.000000 -1.000000 -1.000000
v -1.000000 1.000000 -1.000000
v -1.000000 -1.000000 1.000000
v -1.000000 1.000000 1.000000
vt 0.250043 0.666659
vt 0.250043 0.333384
vt 0.500000 0.333384
vt 0.500000 0.666660
vt 0.749957 0.333384
vt 0.749957 0.666660
vt 0.999914 0.333384
vt 0.999914 0.666660
vt 0.000087 0.666659
vt 0.000087 0.333384
vt 0.500000 0.999935
vt 0.250043 0.999935
vt 0.500000 0.000108
vt 0.250043 0.000108
vn 1.0000 0.0000 0.0000
vn 0.0000 0.0000 1.0000
vn -1.0000 -0.0000 0.0000
vn 0.0000 -0.0000 -1.0000
vn 0.0000 -1.0000 0.0000
vn 0.0000 1.0000 -0.0000
usemtl Material.001
s off
f 1/1/1 2/2/1 4/3/1 3/4/1
f 3/4/2 4/3/2 8/5/2 7/6/2
f 7/6/3 8/5/3 6/7/3 5/8/3
f 5/9/4 6/10/4 2/2/4 1/1/4
f 3/4/5 7/11/5 5/12/5 1/1/5
f 8/13/6 4/3/6 2/2/6 6/14/6
