# Blender v2.82 (sub 7) OBJ File: 'untitled.blend'
# www.blender.org
mtllib skybox.mtl
o Cube_Cube.002
v -10.000000 10.000000 10.000000
v -10.000000 -10.000000 -10.000000
v -10.000000 10.000000 -10.000000
v 10.000000 10.000000 10.000000
v -10.000000 -10.000000 10.000000
v 10.000000 10.000000 -10.000000
v 10.000000 -10.000000 10.000000
v 10.000000 -10.000000 -10.000000
vt 0.666454 -0.000011
vt 0.499987 0.998790
vt 0.499987 -0.000011
vt 0.166545 1.000038
vt 0.000079 0.001237
vt 0.166545 0.001236
vt 0.333302 0.998828
vt 0.499768 0.000026
vt 0.499768 0.998828
vt 0.166809 -0.000118
vt 0.333276 0.998682
vt 0.166809 0.998682
vt 0.999806 -0.000360
vt 0.833339 0.998443
vt 0.833339 -0.000360
vt 0.666867 1.000005
vt 0.833334 0.001204
vt 0.833334 1.000005
vt 0.666454 0.998790
vt 0.000079 1.000038
vt 0.333302 0.000026
vt 0.333276 -0.000119
vt 0.999806 0.998443
vt 0.666867 0.001204
vn 1.0000 0.0000 0.0000
vn 0.0000 0.0000 -1.0000
vn -1.0000 0.0000 0.0000
vn 0.0000 0.0000 1.0000
vn 0.0000 -1.0000 0.0000
vn 0.0000 1.0000 0.0000
usemtl None
s 1
f 1/1/1 2/2/1 3/3/1
f 4/4/2 5/5/2 1/6/2
f 6/7/3 7/8/3 4/9/3
f 3/10/4 8/11/4 6/12/4
f 3/13/5 4/14/5 1/15/5
f 8/16/6 5/17/6 7/18/6
f 1/1/1 5/19/1 2/2/1
f 4/4/2 7/20/2 5/5/2
f 6/7/3 8/21/3 7/8/3
f 3/10/4 2/22/4 8/11/4
f 3/13/5 6/23/5 4/14/5
f 8/16/6 2/24/6 5/17/6
